<svg width="420" height="370" viewBox="0 0 420 370" fill="none" xmlns="http://www.w3.org/2000/svg">
<g opacity="0.6">
<circle cx="210.203" cy="76" r="16" fill="#E9F4FF"/>
<path d="M178.203 226C178.203 208.327 192.53 194 210.203 194C227.876 194 242.203 208.327 242.203 226V309H178.203V226Z" fill="#E9F4FF"/>
<path d="M20.3127 134.508H398.844C400.499 134.508 401.841 135.85 401.841 137.506V163.844L401.838 163.998C401.759 165.582 400.448 166.842 398.845 166.842H20.3127C18.6566 166.842 17.3148 165.498 17.3147 163.844V137.506L17.3186 137.352C17.3987 135.767 18.708 134.508 20.3127 134.508ZM23.3098 160.846H395.846V140.503H23.3098V160.846Z" fill="#E9F4FF" stroke="#0A80ED"/>
<path d="M209.688 191.049C229.681 191.05 246.082 210.252 246.082 234.034V303.067H240.109V234.034C240.109 214.393 226.537 198.269 209.688 198.269C192.84 198.269 179.268 214.393 179.268 234.034V303.534H173.294V234.034C173.294 210.252 189.696 191.049 209.688 191.049Z" fill="#E9F4FF" stroke="#0A80ED"/>
<path d="M61.5964 166.757V303.527H55.6072V166.757H61.5964ZM88.7781 166.757H94.7703V303.527H88.7781V166.757Z" fill="#E9F4FF" stroke="#0A80ED"/>
<path d="M88.6982 208.794V214.333H61.6777V208.794H88.6982Z" fill="#E9F4FF" stroke="#0A80ED"/>
<path d="M88.6982 191.048V196.586H61.6777V191.048H88.6982Z" fill="#E9F4FF" stroke="#0A80ED"/>
<path d="M88.6982 274.167V279.706H61.6777V274.167H88.6982Z" fill="#E9F4FF" stroke="#0A80ED"/>
<path d="M88.6982 256.429V261.967H61.6777V256.429H88.6982Z" fill="#E9F4FF" stroke="#0A80ED"/>
<path d="M330.599 166.757V303.527H324.61V166.757H330.599ZM357.781 166.757H363.773V303.527H357.781V166.757Z" fill="#E9F4FF" stroke="#0A80ED"/>
<path d="M357.699 208.794V214.333H330.678V208.794H357.699Z" fill="#E9F4FF" stroke="#0A80ED"/>
<path d="M357.699 191.048V196.586H330.678V191.048H357.699Z" fill="#E9F4FF" stroke="#0A80ED"/>
<path d="M357.699 274.167V279.706H330.678V274.167H357.699Z" fill="#E9F4FF" stroke="#0A80ED"/>
<path d="M357.699 256.429V261.967H330.678V256.429H357.699Z" fill="#E9F4FF" stroke="#0A80ED"/>
<path d="M120.434 166.757V303.527H114.445V166.757H120.434ZM147.616 166.757H153.608V303.527H147.616V166.757Z" fill="#E9F4FF" stroke="#0A80ED"/>
<path d="M136.805 192.549L136.805 282.886C136.805 283.715 136.133 284.386 135.305 284.386L132.767 284.386C131.938 284.386 131.267 283.715 131.267 282.886L131.267 192.549C131.267 191.721 131.938 191.049 132.767 191.049L135.305 191.049C136.133 191.049 136.805 191.721 136.805 192.549Z" fill="#E9F4FF" stroke="#0A80ED"/>
<path d="M271.753 166.757V303.527H265.763V166.757H271.753ZM298.934 166.757H304.927V303.527H298.934V166.757Z" fill="#E9F4FF" stroke="#0A80ED"/>
<path d="M288.115 192.549L288.115 282.886C288.115 283.715 287.443 284.386 286.615 284.386L284.077 284.386C283.248 284.386 282.577 283.715 282.577 282.886L282.577 192.549C282.577 191.721 283.248 191.049 284.077 191.049L286.615 191.049C287.443 191.049 288.115 191.721 288.115 192.549Z" fill="#E9F4FF" stroke="#0A80ED"/>
<path d="M340.488 114.448L347.894 114.448L347.894 133.997L340.488 133.997L340.488 114.448Z" fill="#E9F4FF" stroke="#0A80ED"/>
<path d="M208.062 28.9448C208.996 28.4006 210.15 28.4006 211.084 28.9448L346.411 107.858H335.903L209.823 35.1499L209.574 35.0063L209.324 35.1499L82.9761 107.856H72.356L208.062 28.9448Z" fill="#E9F4FF" stroke="#0A80ED"/>
<path d="M208.059 0.908203C208.992 0.364217 210.146 0.364236 211.08 0.908203L395.67 108.592C396.838 109.273 397.406 110.655 397.054 111.964C396.702 113.27 395.515 114.178 394.161 114.178H24.9814C23.7123 114.178 22.5889 113.38 22.1621 112.204L22.0869 111.964C21.7332 110.655 22.301 109.274 23.4697 108.592L208.059 0.908203ZM209.319 7.11328L37.667 107.25L36.0703 108.182H383.072L381.475 107.25L209.823 7.11328L209.571 6.96582L209.319 7.11328Z" fill="#E9F4FF" stroke="#0A80ED"/>
<path d="M209.575 54.8735C220.96 54.8737 230.223 64.1371 230.224 75.5239C230.224 86.9092 220.96 96.1732 209.575 96.1733C198.19 96.1733 188.926 86.9093 188.926 75.5239C188.926 64.137 198.19 54.8735 209.575 54.8735ZM209.575 60.8687C201.496 60.8687 194.921 67.4428 194.921 75.5239C194.921 83.6035 201.496 90.1782 209.575 90.1782C217.655 90.1781 224.229 83.6034 224.229 75.5239C224.228 67.4429 217.655 60.8688 209.575 60.8687Z" fill="#E9F4FF" stroke="#0A80ED"/>
<path d="M71.4736 114.448L78.8799 114.448L78.8799 133.997L71.4736 133.997L71.4736 114.448Z" fill="#E9F4FF" stroke="#0A80ED"/>
<path d="M8.5752 337.218H199.905C200.853 337.218 201.746 337.666 202.311 338.427V338.428L206.718 344.353C207.399 345.268 208.449 345.796 209.59 345.796H209.592C210.733 345.796 211.784 345.268 212.466 344.351L216.873 338.428V338.427C217.438 337.666 218.33 337.218 219.279 337.218H410.607C415.06 337.218 418.682 340.84 418.682 345.291V349.96C418.682 354.413 415.06 358.035 410.607 358.035H228.081L227.966 358.375C226.875 361.605 224.241 364.327 220.872 366.247C217.506 368.165 213.449 369.258 209.59 369.258C205.73 369.258 201.674 368.165 198.308 366.247C194.938 364.327 192.304 361.605 191.213 358.375L191.098 358.035H8.5752C4.12238 358.035 0.5 354.413 0.5 349.96V345.291C0.5 340.84 4.12232 337.218 8.5752 337.218ZM8.5752 343.212C7.42849 343.212 6.49512 344.143 6.49512 345.289V349.959C6.49537 351.106 7.42828 352.038 8.5752 352.038H193.66C195.316 352.038 196.657 353.379 196.657 355.035C196.657 357.215 198.418 359.277 200.801 360.758C203.214 362.257 206.413 363.261 209.59 363.261C212.766 363.261 215.964 362.257 218.378 360.758C220.76 359.277 222.521 357.215 222.521 355.035C222.522 353.379 223.862 352.038 225.519 352.038H410.604C411.75 352.038 412.683 351.106 412.684 349.959V345.289C412.684 344.143 411.75 343.212 410.604 343.212H220.782L220.632 343.413L217.274 347.927C215.447 350.383 212.65 351.788 209.59 351.788H209.589C206.531 351.788 203.732 350.381 201.906 347.927L198.549 343.413L198.398 343.212H8.5752Z" fill="#E9F4FF" stroke="#0A80ED"/>
<path d="M220.644 303.597H378.069C391.986 303.597 404.267 316.615 404.267 331.498V337.152L398.268 337.155V331.502C398.268 319.861 388.874 309.596 378.065 309.596H221.445L221.329 309.663L210.885 315.71C209.902 316.278 208.679 316.242 207.73 315.616L198.754 309.677L198.629 309.594H40.7036C29.8927 309.594 20.5016 319.861 20.5015 331.5V337.156H14.5044L14.5054 331.5C14.5055 316.617 26.7851 303.599 40.7036 303.599H199.532C200.121 303.599 200.695 303.771 201.186 304.096L209.233 309.42L209.492 309.591L209.759 309.436L219.142 304.002V304.001C219.599 303.736 220.117 303.597 220.644 303.597Z" fill="#E9F4FF" stroke="#0A80ED"/>
<path d="M220.607 318.609H372.556C379.182 318.609 384.576 324.001 384.576 330.627V337.156L378.577 337.157V330.629C378.577 327.308 375.875 324.606 372.553 324.606H221.57L221.439 324.701L211.1 332.137C210.063 332.88 208.679 332.885 207.646 332.172L207.444 332.02L198.558 324.72L198.42 324.606H46.1416C42.8207 324.606 40.1182 327.308 40.1182 330.629V337.158H34.1211L34.123 330.629C34.123 324.003 39.5149 318.611 46.1416 318.611H199.495C200.189 318.611 200.862 318.852 201.398 319.292L209.174 325.679L209.471 325.923L209.783 325.699L218.855 319.173C219.368 318.807 219.98 318.609 220.607 318.609Z" fill="#E9F4FF" stroke="#0A80ED"/>
</g>
</svg>
