<svg width="361" height="92" viewBox="0 0 361 92" fill="none" xmlns="http://www.w3.org/2000/svg">
<path fill-rule="evenodd" clip-rule="evenodd" d="M290.85 20.3906C294.037 20.3906 296.865 21 299.334 22.2188C301.803 23.4375 303.865 25.1875 305.521 27.4688C307.209 29.7188 308.475 32.4219 309.318 35.5781C310.162 38.7344 310.584 42.25 310.584 46.125V47.1094C310.584 50.7969 310.162 54.2188 309.318 57.375C308.475 60.5 307.209 63.2344 305.521 65.5781C303.865 67.9219 301.818 69.75 299.381 71.0625C296.943 72.3438 294.115 72.9844 290.896 72.9844C287.834 72.9844 285.178 72.3438 282.928 71.0625C281.446 70.1858 280.119 69.0846 278.943 67.7617V91.5469H264.318V21.3281H277.959L278.448 26.1816C279.729 24.5873 281.222 23.2974 282.928 22.3125C285.146 21.0312 287.787 20.3906 290.85 20.3906ZM287.1 31.7812C285.35 31.7812 283.865 32.0625 282.646 32.625C281.428 33.1875 280.443 34.0156 279.693 35.1094C279.415 35.5033 279.166 35.9319 278.943 36.3945V56.8359C279.585 58.1759 280.459 59.262 281.568 60.0938C282.975 61.0938 284.85 61.5938 287.193 61.5938C288.85 61.5938 290.225 61.2344 291.318 60.5156C292.443 59.7656 293.334 58.7188 293.99 57.375C294.678 56.0312 295.162 54.4844 295.443 52.7344C295.756 50.9844 295.912 49.1094 295.912 47.1094V46.125C295.912 44.0625 295.756 42.1719 295.443 40.4531C295.131 38.7031 294.631 37.1875 293.943 35.9062C293.256 34.5938 292.35 33.5781 291.225 32.8594C290.1 32.1406 288.725 31.7812 287.1 31.7812Z" fill="#0A80ED"/>
<path fill-rule="evenodd" clip-rule="evenodd" d="M341.1 20.3906C344.287 20.3906 347.115 21 349.584 22.2188C352.053 23.4375 354.115 25.1875 355.771 27.4688C357.459 29.7188 358.725 32.4219 359.568 35.5781C360.412 38.7344 360.834 42.25 360.834 46.125V47.1094C360.834 50.7969 360.412 54.2188 359.568 57.375C358.725 60.5 357.459 63.2344 355.771 65.5781C354.115 67.9219 352.068 69.75 349.631 71.0625C347.193 72.3438 344.365 72.9844 341.146 72.9844C338.084 72.9844 335.428 72.3438 333.178 71.0625C331.696 70.1858 330.369 69.0846 329.193 67.7617V91.5469H314.568V21.3281H328.209L328.698 26.1816C329.979 24.5873 331.472 23.2974 333.178 22.3125C335.396 21.0312 338.037 20.3906 341.1 20.3906ZM337.35 31.7812C335.6 31.7812 334.115 32.0625 332.896 32.625C331.678 33.1875 330.693 34.0156 329.943 35.1094C329.665 35.5033 329.416 35.9319 329.193 36.3945V56.8359C329.835 58.1759 330.709 59.262 331.818 60.0938C333.225 61.0938 335.1 61.5938 337.443 61.5938C339.1 61.5938 340.475 61.2344 341.568 60.5156C342.693 59.7656 343.584 58.7188 344.24 57.375C344.928 56.0312 345.412 54.4844 345.693 52.7344C346.006 50.9844 346.162 49.1094 346.162 47.1094V46.125C346.162 44.0625 346.006 42.1719 345.693 40.4531C345.381 38.7031 344.881 37.1875 344.193 35.9062C343.506 34.5938 342.6 33.5781 341.475 32.8594C340.35 32.1406 338.975 31.7812 337.35 31.7812Z" fill="#0A80ED"/>
<path fill-rule="evenodd" clip-rule="evenodd" d="M169.635 39.2744L171.692 36.5967L184.177 21.4307H201.758L183.65 42.498L198.668 66.2441L222.582 4H228.703L228.679 4.04688H236.613L262.021 72.0469H245.678L241.322 58.5029H218.063L210.012 81H191.261L174.24 52.6104L169.635 57.2676V72.3936H155V0H169.635V39.2744ZM200.668 69.4062L206.103 78H207.898L228.801 19.5986L224.307 7.87695L200.668 69.4062ZM222.275 46.7334H237.538L230.314 24.2705L222.275 46.7334Z" fill="#0A80ED"/>
<path fill-rule="evenodd" clip-rule="evenodd" d="M76.9971 20.3906C80.9657 20.3906 84.4971 21.0625 87.5908 22.4062C90.7158 23.7188 93.1846 25.7032 94.9971 28.3594C96.8095 30.9844 97.7158 34.2969 97.7158 38.2969V59.5312C97.7158 62.5938 97.8877 65 98.2314 66.75C98.6064 68.4687 99.1377 69.9688 99.8252 71.25V72.0469H85.0596C84.4559 70.7572 83.9841 69.2026 83.6455 67.3828C83.1378 67.9872 82.5786 68.5738 81.9658 69.1406C80.7159 70.2656 79.2001 71.1875 77.4189 71.9062C75.669 72.625 73.5595 72.9844 71.0908 72.9844C67.9034 72.9844 65.0127 72.3437 62.4189 71.0625C59.8252 69.75 57.7471 67.9531 56.1846 65.6719C54.6533 63.3906 53.8877 60.7656 53.8877 57.7969C53.8877 55.1406 54.3721 52.7812 55.3408 50.7188C56.3096 48.6563 57.7627 46.9062 59.7002 45.4688C61.6689 44.0313 64.1378 42.9531 67.1064 42.2344C70.0752 41.4844 73.544 41.1094 77.5127 41.1094H82.9971V38.2031C82.9971 36.6719 82.7627 35.3594 82.2939 34.2656C81.8252 33.1719 81.0908 32.3125 80.0908 31.6875C79.0909 31.0625 77.7939 30.75 76.2002 30.75C74.8565 30.75 73.6845 30.9844 72.6846 31.4531C71.7159 31.9219 70.9658 32.5938 70.4346 33.4688C69.9346 34.3438 69.6846 35.4219 69.6846 36.7031H55.0596C55.0596 34.4219 55.5752 32.2969 56.6064 30.3281C57.6377 28.3594 59.1065 26.625 61.0127 25.125C62.9502 23.625 65.2627 22.4687 67.9502 21.6562C70.6377 20.8125 73.6534 20.3906 76.9971 20.3906ZM77.6533 49.1719C76.0284 49.1719 74.622 49.375 73.4346 49.7812C72.2784 50.1875 71.3408 50.75 70.6221 51.4688C69.9033 52.1562 69.3721 52.9688 69.0283 53.9062C68.7158 54.8125 68.5596 55.8125 68.5596 56.9062C68.5596 57.9375 68.8096 58.875 69.3096 59.7188C69.8096 60.5312 70.4971 61.1719 71.3721 61.6406C72.247 62.1093 73.2628 62.3438 74.4189 62.3438C76.3251 62.3437 77.9502 61.9687 79.2939 61.2188C80.6689 60.4688 81.7315 59.5625 82.4814 58.5C82.6801 58.2103 82.851 57.9253 82.9971 57.6465V49.1719H77.6533Z" fill="#0A80ED"/>
<path fill-rule="evenodd" clip-rule="evenodd" d="M24.1875 3.79688C28.2812 3.79688 31.9375 4.17188 35.1562 4.92188C38.375 5.67188 41.1094 6.82812 43.3594 8.39062C45.6406 9.95312 47.375 11.9062 48.5625 14.25C49.75 16.5938 50.3438 19.3594 50.3438 22.5469C50.3438 25.3281 49.7188 27.9219 48.4688 30.3281C47.25 32.7344 45.2812 34.6875 42.5625 36.1875C41.9929 36.5017 41.3819 36.7832 40.7314 37.0371C42.1 37.3847 43.3202 37.8653 44.3906 38.4844C47.0156 39.9531 48.9062 41.8906 50.0625 44.2969C51.2188 46.7031 51.7969 49.25 51.7969 51.9375C51.7969 56.375 50.8438 60.0938 48.9375 63.0938C47.0312 66.0625 44.2031 68.2969 40.4531 69.7969C36.7344 71.2969 32.1406 72.0469 26.6719 72.0469H0V3.79688H24.1875ZM15.2812 60.2344H26.6719C29.0156 60.2344 30.9219 59.8594 32.3906 59.1094C33.8594 58.3594 34.9375 57.3438 35.625 56.0625C36.3125 54.7812 36.6562 53.3438 36.6562 51.75C36.6562 49.875 36.3281 48.25 35.6719 46.875C35.0469 45.5 34.0469 44.4375 32.6719 43.6875C31.3281 42.9375 29.5312 42.5625 27.2812 42.5625H15.2812V60.2344ZM15.2812 32.3438H24.1406C26.7031 32.3438 28.7812 32.0312 30.375 31.4062C32 30.7812 33.1875 29.875 33.9375 28.6875C34.6875 27.4688 35.0625 25.9688 35.0625 24.1875C35.0625 22.1562 34.6875 20.5156 33.9375 19.2656C33.1875 18.0156 32 17.1094 30.375 16.5469C28.7812 15.9531 26.7188 15.6562 24.1875 15.6562H15.2812V32.3438Z" fill="#0A80ED"/>
<path d="M132.898 20.3906C135.273 20.3907 137.445 20.7344 139.414 21.4219C141.383 22.1094 143.07 23.2188 144.477 24.75C145.914 26.25 147.008 28.2501 147.758 30.75C148.508 33.2187 148.883 36.2657 148.883 39.8906V72.0469H134.164V39.8438C134.164 37.7188 133.867 36.0781 133.273 34.9219C132.68 33.7657 131.805 32.9531 130.648 32.4844C129.524 32.0157 128.148 31.7813 126.523 31.7812C124.805 31.7812 123.336 32.1251 122.117 32.8125C120.898 33.4687 119.898 34.3907 119.117 35.5781C119.003 35.7513 118.894 35.9295 118.789 36.1113V72.0469H104.117V21.3281H117.898L118.387 27.2705C118.458 27.1796 118.529 27.0893 118.602 27C120.352 24.8438 122.43 23.2031 124.836 22.0781C127.273 20.9532 129.961 20.3906 132.898 20.3906Z" fill="#0A80ED"/>
</svg>
